PathFileType	4	(X/Y/Z)	s06c0201.trc
DataRate	CameraRate	NumFrames	NumMarkers	Units	OrigDataRate	OrigDataStartFrame	OrigNumFrames
200	200	4	49	mm	200	250	2000
Frame#	Time	racr			lacr			c7			jug			rlel			rdr			llel			ldr			s2			lic			ric			lasi			rasi			rpsi			lpsi			rgt			lgt			rth1			rth2			rth3			rth4			rlfc			rmfc			rsh1			rsh2			rsh3			rsh4			rlmal			rmmal			rcal			rtoe			rmt5			lth1			lth2			lth4			lth3			llfc			lmfc			llmal			lcal			lmt5			lsh1			lsh2			lsh3			lsh4			ltoe			SBIKE			LBIKE			RBIKE			
		X1	Y1	Z1	X2	Y2	Z2	X3	Y3	Z3	X4	Y4	Z4	X5	Y5	Z5	X6	Y6	Z6	X7	Y7	Z7	X8	Y8	Z8	X9	Y9	Z9	X10	Y10	Z10	X11	Y11	Z11	X12	Y12	Z12	X13	Y13	Z13	X14	Y14	Z14	X15	Y15	Z15	X16	Y16	Z16	X17	Y17	Z17	X18	Y18	Z18	X19	Y19	Z19	X20	Y20	Z20	X21	Y21	Z21	X22	Y22	Z22	X23	Y23	Z23	X24	Y24	Z24	X25	Y25	Z25	X26	Y26	Z26	X27	Y27	Z27	X28	Y28	Z28	X29	Y29	Z29	X30	Y30	Z30	X31	Y31	Z31	X32	Y32	Z32	X33	Y33	Z33	X34	Y34	Z34	X35	Y35	Z35	X36	Y36	Z36	X37	Y37	Z37	X38	Y38	Z38	X39	Y39	Z39	X40	Y40	Z40	X41	Y41	Z41	X42	Y42	Z42	X43	Y43	Z43	X44	Y44	Z44	X45	Y45	Z45	X46	Y46	Z46	X47	Y47	Z47	X48	Y48	Z48	X49	Y49	Z49	
250	1.2500	446.286312	1343.161023	-56.887384	464.160248	1355.876293	-390.206079	442.043589	1432.561778	-222.124916	462.766741	1259.951079	-217.311373	482.599251	1084.254696	24.286131	681.063424	943.569331	-43.379452	487.942026	1095.385729	-477.096041	675.964430	938.252255	-427.325165	-41.249932	1129.158977	-222.257580	144.994364	1096.830423	-387.266844	116.122685	1100.784899	-51.535462	159.122572	1030.959009	-359.107858	140.766592	1051.291614	-80.491713	-5.707853	1169.444163	-193.878051	-7.610856	1164.083718	-257.981333	74.803040	1048.583776	-17.861211	106.894777	1026.890724	-420.997995	179.815963	989.597791	-17.882074	268.928334	974.988084	-21.154201	335.966538	920.422600	-23.016536	280.700368	1005.666178	-41.444096	412.250699	841.393317	-45.802694	413.253070	815.497091	-156.191847	377.068032	722.480305	-21.773935	369.243416	637.423709	-42.447162	323.440995	563.718447	-46.092996	391.616068	634.427768	-74.750096	291.404558	489.265324	-51.080282	324.735456	492.683415	-144.056332	224.397863	475.422713	-101.604802	483.362137	380.833802	-109.536119	387.234260	388.417596	-36.674122	153.674090	913.929826	-432.178092	223.898628	862.795347	-423.771863	250.995221	885.176915	-410.042502	259.066386	780.862541	-416.104562	284.817037	673.466777	-387.402388	285.385235	654.646118	-271.673782	46.157146	392.736786	-385.293748	-23.228470	416.303740	-339.169860	87.977971	251.862648	-407.019527	220.586849	590.830270	-411.852615	183.389507	513.682686	-395.178493	112.790968	461.402067	-400.638824	204.217792	500.178332	-364.472305	154.164250	197.646827	-347.853141	-155.506005	856.258800	-225.542400	-50.343299	79.801607	-419.922870	-50.370274	79.969192	-22.238567	
251	1.2550	446.347813	1343.116649	-56.782725	464.289052	1355.830680	-390.066169	442.160505	1432.527073	-222.005378	462.870791	1259.896353	-217.204222	482.562575	1084.192514	24.491072	681.048307	943.530388	-43.342772	487.913191	1095.377318	-477.181238	675.962317	938.268205	-427.366363	-41.203200	1129.147389	-222.195007	144.954123	1096.862279	-387.131619	116.203222	1100.752696	-51.471383	159.125803	1031.023846	-359.019701	140.852257	1051.277940	-80.454893	-5.681071	1169.445586	-193.758900	-7.573870	1164.089945	-257.894819	74.902480	1048.523641	-17.807233	106.926947	1026.968837	-420.962239	179.931584	989.528964	-17.898448	269.033287	974.939043	-21.206577	336.059267	920.355518	-23.128034	280.786524	1005.629527	-41.496460	412.336551	841.313343	-45.940169	413.277098	815.443874	-156.289992	377.117318	722.421866	-21.850762	369.264673	637.378996	-42.512404	323.450840	563.683429	-46.134572	391.629678	634.349654	-74.835372	291.363410	489.203729	-51.090647	324.694072	492.644024	-144.080334	224.361844	475.365886	-101.598956	483.351119	380.852488	-109.529005	387.233568	388.403296	-36.663633	153.682819	913.999132	-432.205699	223.915334	862.880905	-423.847181	251.022812	885.256997	-410.085306	259.103443	780.943964	-416.227803	284.839483	673.488282	-387.554522	285.497585	654.669567	-271.833031	46.197293	392.759918	-385.324592	-23.156715	416.337223	-339.160065	87.992672	251.883652	-407.051074	220.592702	590.865269	-411.979517	183.418244	513.726920	-395.278841	112.809965	461.448114	-400.734879	204.272048	500.223393	-364.578560	154.135515	197.631881	-347.853918	-155.520628	856.242460	-225.559181	-50.341865	79.795515	-419.927851	-50.363520	79.944981	-22.234996	
252	1.2600	446.396345	1343.049741	-56.685346	464.387137	1355.791329	-389.947260	442.275173	1432.506077	-221.906583	462.947184	1259.868811	-217.076235	482.538974	1084.139325	24.691809	681.042689	943.492147	-43.327509	487.868642	1095.350769	-477.273610	675.959908	938.239632	-427.373426	-41.157928	1129.137594	-222.111602	144.927247	1096.874388	-386.981082	116.276011	1100.733997	-51.387230	159.142740	1031.094920	-358.930408	140.952116	1051.281673	-80.386025	-5.635908	1169.434224	-193.685825	-7.519205	1164.075295	-257.820954	75.008852	1048.485103	-17.754263	106.939972	1027.042375	-420.907656	180.023340	989.475422	-17.930773	269.138964	974.866301	-21.260859	336.151210	920.290824	-23.214048	280.900587	1005.571145	-41.536720	412.408645	841.232137	-46.029523	413.485662	815.256143	-156.393462	377.179726	722.354177	-21.943399	369.272433	637.320588	-42.580074	323.458605	563.627313	-46.161721	391.624145	634.269396	-74.915218	291.319348	489.166401	-51.097289	324.638893	492.612946	-144.096886	224.315429	475.279446	-101.594235	483.349396	380.867848	-109.540466	387.218554	388.397756	-36.671461	153.713904	914.092369	-432.232959	223.935427	862.950653	-423.922753	251.048579	885.336024	-410.172985	259.113891	781.018722	-416.358352	284.836724	673.519415	-387.714405	285.616258	654.669577	-271.998604	46.235616	392.776345	-385.348434	-23.107696	416.386318	-339.182411	88.000603	251.876810	-407.014689	220.599640	590.900461	-412.117870	183.432570	513.757663	-395.416416	112.826180	461.468397	-400.816172	204.282765	500.251403	-364.702452	154.141966	197.621365	-347.874226	-155.546624	856.244950	-225.597467	-50.348151	79.800511	-419.932668	-50.365068	79.971151	-22.219473	
253	1.2650	446.474382	1343.011126	-56.566083	464.486367	1355.740559	-389.847438	442.393377	1432.510491	-221.793587	463.032822	1259.832548	-217.003055	482.524197	1084.104678	24.854336	681.040203	943.461343	-43.276328	487.824509	1095.324726	-477.376519	675.949540	938.264182	-427.402866	-41.096612	1129.145206	-222.033161	144.890744	1096.916258	-386.857781	116.342877	1100.689408	-51.328907	159.153265	1031.161248	-358.888958	141.015810	1051.245701	-80.345068	-5.608911	1169.409414	-193.577784	-7.506087	1164.055059	-257.694776	75.090312	1048.430974	-17.697760	106.956846	1027.110437	-420.826634	180.126577	989.409974	-17.957298	269.254077	974.788877	-21.313384	336.251722	920.221811	-23.317078	280.997100	1005.529405	-41.554372	412.467786	841.158475	-46.145994	413.488718	815.155074	-156.516352	377.205669	722.293268	-22.035534	369.278739	637.256184	-42.636773	323.420598	563.588856	-46.180751	391.614899	634.172703	-74.984389	291.259201	489.095363	-51.111966	324.571969	492.546431	-144.120214	224.253766	475.184973	-101.617947	483.324143	380.904181	-109.529411	387.204854	388.388973	-36.670828	153.729782	914.161574	-432.258518	223.956903	863.031572	-423.991970	251.078543	885.390475	-410.252503	259.113069	781.059095	-416.491141	284.825830	673.541226	-387.878772	285.677978	654.674009	-272.142848	46.251229	392.789664	-385.381008	-23.092315	416.398215	-339.192141	87.976332	251.851776	-407.017185	220.574130	590.909870	-412.246411	183.409673	513.776079	-395.516825	112.822604	461.470300	-400.886066	204.284671	500.272837	-364.796945	154.125532	197.618066	-347.874465	-156.306174	856.119784	-226.224935	-50.343064	79.794367	-419.917489	-50.350317	79.971513	-22.225316	
